<?xml version="1.0" standalone="no"?>
<!DOCTYPE svg PUBLIC "-//W3C//DTD SVG 20010904//EN"
 "http://www.w3.org/TR/2001/REC-SVG-20010904/DTD/svg10.dtd">
<svg version="1.0" xmlns="http://www.w3.org/2000/svg"
 width="200.000000pt" height="200.000000pt" viewBox="0 0 100.000000 100.000000"
 preserveAspectRatio="xMidYMid meet">
<metadata>
Created by potrace 1.16, written by Peter Selinger 2001-2019
</metadata>
<g transform="translate(0.000000,100.000000) scale(0.100000,-0.100000)"
fill="#A64DFF" stroke="none">
<path d="M133 879 c-19 -19 -16 -36 18 -122 l31 -77 -23 -53 c-18 -41 -22 -70
-23 -137 0 -108 27 -179 94 -253 182 -199 498 -151 614 93 28 59 31 74 31 160
0 82 -4 103 -27 152 -60 128 -177 208 -316 216 -42 2 -92 0 -111 -5 -25 -6
-48 -4 -85 8 -72 24 -187 34 -203 18z m210 -100 c36 -13 56 -15 74 -8 13 5 55
9 92 9 115 0 208 -59 267 -170 30 -55 27 -190 -6 -253 -73 -144 -250 -204
-392 -134 -107 53 -162 143 -163 267 0 60 5 85 24 124 l25 50 -21 55 c-11 31
-24 64 -28 74 -7 16 -3 17 36 11 24 -4 66 -15 92 -25z"/>
<path d="M460 631 c-33 -63 15 -152 58 -109 19 19 16 114 -4 122 -27 10 -43 7
-54 -13z"/>
<path d="M636 634 c-31 -31 -9 -124 29 -124 21 0 45 41 45 77 0 33 -21 63 -45
63 -7 0 -21 -7 -29 -16z"/>
</g>
</svg>
