<?xml version="1.0" standalone="no"?>
<!DOCTYPE svg PUBLIC "-//W3C//DTD SVG 20010904//EN"
 "http://www.w3.org/TR/2001/REC-SVG-20010904/DTD/svg10.dtd">
<svg version="1.0" xmlns="http://www.w3.org/2000/svg"
 width="25.000000pt" height="26.000000pt" viewBox="0 0 25.000000 26.000000"
 preserveAspectRatio="xMidYMid meet">
<metadata>
Created by potrace 1.16, written by Peter Selinger 2001-2019
</metadata>
<g transform="translate(0.000000,26.000000) scale(0.100000,-0.100000)"
fill="#000000" stroke="none">
<path d="M0 254 c0 -3 20 -35 45 -71 l45 -65 -29 -37 c-17 -21 -37 -44 -46
-51 -19 -16 -19 -30 -1 -30 8 0 32 21 53 47 l40 46 32 -46 c29 -43 36 -47 71
-47 22 0 40 3 40 6 0 3 -20 35 -45 71 -25 35 -45 67 -45 70 0 4 18 28 40 54
44 52 47 59 27 59 -8 0 -28 -18 -46 -40 -17 -22 -36 -40 -40 -40 -5 0 -20 18
-35 40 -23 36 -31 40 -66 40 -22 0 -40 -3 -40 -6z m139 -129 c39 -58 68 -105
62 -105 -5 0 -38 42 -74 93 -77 112 -80 117 -69 117 4 0 41 -47 81 -105z"/>
</g>
</svg>
